HIERARCHY
ROOT Hips
{
	OFFSET 0.00 0.00 0.00
	CHANNELS 6 Xposition Yposition Zposition Zrotation Yrotation Xrotation
	JOINT Spine
	{
		OFFSET	-0.0066	10.8226	-0.4307
		CHANNELS 3 Zrotation Yrotation Xrotation
		JOINT Spine1
		{
			OFFSET	0.0000	12.6263	-0.2112
			CHANNELS 3 Zrotation Yrotation Xrotation
			JOINT Spine2
			{
				OFFSET	0.0000	14.4301	0.0000
				CHANNELS 3 Zrotation Yrotation Xrotation
				JOINT Neck
				{
					OFFSET	0.0000	16.2338	0.0000
					CHANNELS 3 Zrotation Yrotation Xrotation
					JOINT Head
					{
						OFFSET	0.0000	6.7614	0.0000
						CHANNELS 3 Zrotation Yrotation Xrotation
						End Site
						{
							OFFSET 0.0000 23.0037 2.4456
						}
					}
				}
				JOINT LeftShoulder
				{
					OFFSET	10.9527	13.3171	-1.4436
					CHANNELS 3 Zrotation Yrotation Xrotation
					JOINT LeftArm
					{
						OFFSET	12.5621	-10.8187	0.1359
						CHANNELS 3 Zrotation Yrotation Xrotation
						JOINT LeftForeArm
						{
							OFFSET	18.8844	-21.6036	-1.0453
							CHANNELS 3 Zrotation Yrotation Xrotation
							JOINT LeftHand
							{
								OFFSET	13.3138	-14.1460	5.6551
								CHANNELS 3 Zrotation Yrotation Xrotation
								JOINT LeftHandThumb1
								{
									OFFSET	-0.2234	-4.5184	5.7249
									CHANNELS 3 Zrotation Yrotation Xrotation
									JOINT LeftHandThumb2
									{
										OFFSET	-0.1787	-3.6147	4.5798
										CHANNELS 3 Zrotation Yrotation Xrotation
										JOINT LeftHandThumb3
										{
											OFFSET	0.3288	-5.9239	3.0121
											CHANNELS 3 Zrotation Yrotation Xrotation
											End Site
											{
												OFFSET 0.7426 -5.8978 -0.2421
											}
										}
									}
								}
								JOINT LeftHandIndex1
								{
									OFFSET	9.9406	-11.6381	6.4224
									CHANNELS 3 Zrotation Yrotation Xrotation
									JOINT LeftHandIndex2
									{
										OFFSET	3.7566	-3.9716	0.6536
										CHANNELS 3 Zrotation Yrotation Xrotation
										JOINT LeftHandIndex3
										{
											OFFSET	0.1239	-4.1016	0.5838
											CHANNELS 3 Zrotation Yrotation Xrotation
											End Site
											{
												OFFSET -0.5425 -5.8416 0.4926
											}
										}
									}
								}
								JOINT LeftHandMiddle1
								{
									OFFSET	9.7285	-13.5636	1.1502
									CHANNELS 3 Zrotation Yrotation Xrotation
									JOINT LeftHandMiddle2
									{
										OFFSET	3.6112	-4.6700	-0.0223
										CHANNELS 3 Zrotation Yrotation Xrotation
										JOINT LeftHandMiddle3
										{
											OFFSET	-0.9717	-4.4064	0.5814
											CHANNELS 3 Zrotation Yrotation Xrotation
											End Site
											{
												OFFSET -0.5473 -6.5481 0.5540
											}
										}
									}
								}
								JOINT LeftHandRing1
								{
									OFFSET	7.3735	-14.4731	-3.1009
									CHANNELS 3 Zrotation Yrotation Xrotation
									JOINT LeftHandRing2
									{
										OFFSET	3.1552	-4.3381	-0.6877
										CHANNELS 3 Zrotation Yrotation Xrotation
										JOINT LeftHandRing3
										{
											OFFSET	-0.6730	-3.8541	0.3914
											CHANNELS 3 Zrotation Yrotation Xrotation
											End Site
											{
												OFFSET -1.3498 -5.2602 0.6271
											}
										}
									}
								}
								JOINT LeftHandPinky1
								{
									OFFSET	4.8259	-14.8922	-6.2759
									CHANNELS 3 Zrotation Yrotation Xrotation
									JOINT LeftHandPinky2
									{
										OFFSET	1.6777	-3.4757	-0.9769
										CHANNELS 3 Zrotation Yrotation Xrotation
										JOINT LeftHandPinky3
										{
											OFFSET	-0.4572	-2.7695	-0.0728
											CHANNELS 3 Zrotation Yrotation Xrotation
											End Site
											{
												OFFSET -1.7306 -3.7265 0.8577
											}
										}
									}
								}
							}
						}
					}
				}
				JOINT RightShoulder
				{
					OFFSET	-10.9527	13.3171	-1.4436
					CHANNELS 3 Zrotation Yrotation Xrotation
					JOINT RightArm
					{
						OFFSET	-12.5621	-10.8187	0.1359
						CHANNELS 3 Zrotation Yrotation Xrotation
						JOINT RightForeArm
						{
							OFFSET	-12.9927	-15.1138	-1.1998
							CHANNELS 3 Zrotation Yrotation Xrotation
							JOINT RightHand
							{
								OFFSET	-19.2055	-20.6359	5.8096
								CHANNELS 3 Zrotation Yrotation Xrotation
								JOINT RightHandIndex1
								{
									OFFSET	-11.7773	-11.2003	3.5246
									CHANNELS 3 Zrotation Yrotation Xrotation
									JOINT RightHandIndex2
									{
										OFFSET	-1.8031	-2.3101	0.8667
										CHANNELS 3 Zrotation Yrotation Xrotation
										JOINT RightHandIndex3
										{
											OFFSET	-0.9561	-2.4372	0.8479
											CHANNELS 3 Zrotation Yrotation Xrotation
											End Site
											{
												OFFSET -0.3592 -3.3007 1.2418
											}
										}
									}
								}
								JOINT RightHandMiddle1
								{
									OFFSET	-11.1069	-12.6853	0.1207
									CHANNELS 3 Zrotation Yrotation Xrotation
									JOINT RightHandMiddle2
									{
										OFFSET	-1.4413	-2.9544	0.4089
										CHANNELS 3 Zrotation Yrotation Xrotation
										JOINT RightHandMiddle3
										{
											OFFSET	-0.5774	-2.5977	0.3048
											CHANNELS 3 Zrotation Yrotation Xrotation
											End Site
											{
												OFFSET -0.3601 -3.5348 0.4882
											}
										}
									}
								}
								JOINT RightHandRing1
								{
									OFFSET	-9.8468	-13.0073	-3.1392
									CHANNELS 3 Zrotation Yrotation Xrotation
									JOINT RightHandRing2
									{
										OFFSET	-0.6811	-2.8000	-0.1504
										CHANNELS 3 Zrotation Yrotation Xrotation
										JOINT RightHandRing3
										{
											OFFSET	-0.4028	-2.2868	-0.2694
											CHANNELS 3 Zrotation Yrotation Xrotation
											End Site
											{
												OFFSET 0.1853 -3.2500 0.2083
											}
										}
									}
								}
								JOINT RightHandPinky1
								{
									OFFSET	-7.8050	-12.5466	-5.9736
									CHANNELS 3 Zrotation Yrotation Xrotation
									JOINT RightHandPinky2
									{
										OFFSET	0.0105	-2.2470	-0.3620
										CHANNELS 3 Zrotation Yrotation Xrotation
										JOINT RightHandPinky3
										{
											OFFSET	0.2970	-1.8184	-0.0591
											CHANNELS 3 Zrotation Yrotation Xrotation
											End Site
											{
												OFFSET -0.0337 -2.1669 -0.2214
											}
										}
									}
								}
								JOINT RightHandThumb1
								{
									OFFSET	-1.4515	-3.9395	1.6913
									CHANNELS 3 Zrotation Yrotation Xrotation
									JOINT RightHandThumb2
									{
										OFFSET	-1.1612	-3.1516	3.3390
										CHANNELS 3 Zrotation Yrotation Xrotation
										JOINT RightHandThumb3
										{
											OFFSET	-0.2119	-3.9644	3.2468
											CHANNELS 3 Zrotation Yrotation Xrotation
											End Site
											{
												OFFSET -0.4081 -3.7882 1.9049
											}
										}
									}
								}
							}
						}
					}
				}
			}
		}
	}
	JOINT LeftUpLeg
	{
		OFFSET	13.2805	-6.0125	-0.5314
		CHANNELS 3 Zrotation Yrotation Xrotation
		JOINT LeftLeg
		{
			OFFSET	0.4217	-52.0404	1.5006
			CHANNELS 3 Zrotation Yrotation Xrotation
			JOINT LeftFoot
			{
				OFFSET	0.2212	-50.8660	-3.6051
				CHANNELS 3 Zrotation Yrotation Xrotation
				JOINT LeftToeBase
				{
					OFFSET	2.8257	-10.2731	19.2966
					CHANNELS 3 Zrotation Yrotation Xrotation
					End Site
					{
						OFFSET 0.8536 0.3355 9.0832
					}
				}
			}
		}
	}
	JOINT RightUpLeg
	{
		OFFSET	-13.2937	-6.0125	-0.5314
		CHANNELS 3 Zrotation Yrotation Xrotation
		JOINT RightLeg
		{
			OFFSET	-0.4217	-52.0404	1.5006
			CHANNELS 3 Zrotation Yrotation Xrotation
			JOINT RightFoot
			{
				OFFSET	-0.2212	-50.8660	-3.6051
				CHANNELS 3 Zrotation Yrotation Xrotation
				JOINT RightToeBase
				{
					OFFSET	-2.8257	-10.2731	19.2966
					CHANNELS 3 Zrotation Yrotation Xrotation
					End Site
					{
						OFFSET -0.8536 0.3355 9.0832
					}
				}
			}
		}
	}
}
MOTION
Frames: 7
Frame Time: 0.0333333
-1.7676 118.0650 0.4234 -1.2356 -0.0498 -0.3793 0.1619 -0.2598 -0.0866 0.0256 -2.0667 -0.4204 0.0272 -2.0605 -0.4245 -1.3394 1.6039 -1.6877 2.2101 -0.6202 9.2690 12.7334 12.0050 1.6516 -36.9058 -22.0215 18.5820 3.7347 -7.7814 -9.8941 -7.0021 -23.1721 17.9718 13.3637 28.5582 20.0354 -2.1530 -5.8227 -8.7677 -0.3882 -2.8958 -26.7935 -26.4798 -5.8943 -1.7873 11.5289 -0.7070 -7.8675 -5.1510 -0.6719 -6.2537 -26.7309 -11.2703 -8.7249 31.4078 3.7537 2.1519 -21.9391 -2.5992 -6.1521 -29.3534 -17.6597 -16.7604 32.4019 -0.9374 8.1666 -5.9906 -0.1858 -2.9092 -28.8263 -19.5198 -22.2788 20.9118 -3.7171 2.5042 8.1374 -2.9339 9.6857 -16.9329 -2.4444 0.6825 42.1420 19.6618 10.6081 1.5828 8.2897 -8.9333 0.8922 15.0186 17.0212 5.2572 -10.6374 13.5510 19.3396 8.5811 -0.9398 -4.4609 -1.8056 1.0168 3.0888 -3.0719 6.0028 11.5799 3.9857 -5.1921 -0.2994 -1.8935 -0.2016 -0.6354 4.4925 -7.9399 13.2506 1.5941 -8.3014 -5.2705 -2.1013 8.0398 -4.7748 6.5620 -15.3394 5.1960 -0.4075 2.4793 16.9877 -0.6601 -6.3863 -4.3574 -14.2401 30.4602 -10.8125 -2.2165 -4.0807 -0.9283 0.6336 -13.6053 2.9577 3.4006 -8.4701 4.0052 8.7963 19.8610 -4.6925 2.2915 -10.0983 -0.0000 0.0000 -0.0498 -2.7943 -13.1917 -8.0033 -2.1496 -4.7709 15.4271 5.5648 -3.7988 -5.6329 -0.0000 -0.0000 -0.1142 
-1.3010 118.0308 0.3590 -1.3414 -0.2928 -0.4477 0.1559 -0.2434 -0.0441 -0.0007 -2.0459 -0.3529 0.0023 -2.0401 -0.3564 -1.2601 1.5477 -1.6626 2.3106 -0.6737 9.3533 12.6117 11.9775 1.6386 -36.7782 -22.4284 18.5789 3.6943 -7.6912 -9.7767 -7.1106 -22.9868 17.9614 13.3678 28.5609 20.0509 -2.1608 -5.8045 -8.7910 -0.3855 -2.8966 -26.8109 -26.6587 -5.8999 -1.7456 11.4574 -0.7280 -7.8851 -5.2806 -0.6943 -6.2844 -26.8816 -11.3034 -8.7156 31.2949 3.7499 2.1137 -21.8901 -2.5908 -6.1408 -29.4181 -17.7024 -16.7949 32.3115 -0.9278 8.1342 -5.9681 -0.1841 -2.9010 -29.0877 -19.6510 -22.3826 20.7280 -3.6905 2.4321 8.1368 -2.9338 9.6854 -16.7760 -2.2756 0.6627 42.0427 19.6340 10.3436 1.5888 8.2523 -8.8918 0.8521 14.9905 16.9147 5.2637 -10.6937 13.6269 19.5263 8.6521 -0.9204 -4.5093 -1.8231 1.0204 3.6304 -3.0185 6.0023 11.5115 3.9684 -5.1836 -0.4341 -1.9741 -0.1806 -0.1931 4.5407 -7.8998 13.1051 1.5824 -8.2614 -5.3787 -2.1596 8.0740 -4.1907 6.6589 -15.3135 5.2465 -0.4141 2.4618 16.7892 -0.6629 -6.3173 -4.4260 -14.1568 30.7486 -10.7121 -2.3704 -4.3700 -0.9415 0.6389 -13.7395 2.8401 3.2476 -8.5687 3.9811 8.7830 20.2387 -4.5031 2.6719 -10.3700 -0.0000 -0.0000 -0.0665 -2.9084 -13.3689 -7.9508 -2.1521 -4.6276 15.2746 5.7380 -3.5762 -5.3908 -0.0000 0.0000 -0.2383 
-0.8219 117.9757 0.2827 -1.4372 -0.5402 -0.5324 0.1435 -0.2206 0.0108 -0.0330 -2.0246 -0.2655 -0.0283 -2.0194 -0.2682 -1.1734 1.4835 -1.6517 2.4435 -0.7475 9.3938 12.4810 11.8729 1.6162 -36.6938 -23.0235 18.6452 3.6445 -7.5794 -9.6315 -7.1968 -22.7117 17.8564 13.3722 28.5622 20.0408 -2.1595 -5.8113 -8.7831 -0.3936 -2.8973 -26.7946 -26.7844 -5.9141 -1.7273 11.3422 -0.7620 -7.9134 -5.4423 -0.7223 -6.3226 -26.9846 -11.3323 -8.7172 31.1460 3.7447 2.0632 -21.8533 -2.5846 -6.1323 -29.4591 -17.7338 -16.8231 32.2030 -0.9163 8.0953 -5.9512 -0.1828 -2.8947 -29.3330 -19.7653 -22.4616 20.5310 -3.6622 2.3547 8.1367 -2.9338 9.6854 -16.5749 -2.0186 0.6363 41.8873 19.6878 10.0415 1.5971 8.2007 -8.8344 0.8174 14.8816 16.7870 5.3337 -10.7261 13.6761 19.7133 8.7231 -0.9008 -4.5790 -1.8482 1.0256 3.8074 -3.0210 6.0422 11.7395 4.0262 -5.2118 -0.5023 -1.9801 -0.1672 -0.0436 4.5466 -7.8442 13.3620 1.6031 -8.3320 -5.4081 -2.1553 8.0825 -3.9777 6.6939 -15.2646 5.4358 -0.4389 2.3962 16.7460 -0.6635 -6.3023 -4.4317 -14.0693 30.9827 -10.6310 -2.4960 -4.6055 -0.9537 0.6426 -13.8521 2.6984 3.1466 -8.6971 3.9867 8.7591 20.6962 -4.3176 3.0029 -10.6715 0.0000 -0.0000 -0.0844 -3.0427 -13.5526 -7.9502 -2.1629 -4.4715 15.2435 5.9248 -3.3392 -5.1983 -0.0000 -0.0000 -0.2934 
-0.3331 117.9022 0.1980 -1.5282 -0.7835 -0.6291 0.1234 -0.1913 0.0768 -0.0729 -2.0034 -0.1601 -0.0665 -1.9989 -0.1617 -1.0748 1.4096 -1.6518 2.6245 -0.8487 9.3936 12.3648 11.6777 1.5845 -36.6709 -23.8042 18.7869 3.5878 -7.4512 -9.4654 -7.2505 -22.3615 17.6565 13.3756 28.5615 20.0004 -2.1450 -5.8502 -8.7345 -0.4133 -2.8976 -26.7374 -26.8263 -5.9282 -1.7313 11.1559 -0.8170 -7.9589 -5.6507 -0.7585 -6.3717 -27.0101 -11.3394 -8.7175 30.9427 3.7375 1.9944 -21.8401 -2.5823 -6.1293 -29.4641 -17.7320 -16.8184 32.0696 -0.9023 8.0474 -5.9449 -0.1824 -2.8924 -29.5358 -19.8330 -22.4715 20.3225 -3.6326 2.2727 8.1374 -2.9339 9.6857 -16.3044 -1.6380 0.6025 41.6326 19.8067 9.7359 1.6032 8.1619 -8.7913 0.7827 14.6893 16.6264 5.4310 -10.7310 13.6905 19.9164 8.8002 -0.8793 -4.6502 -1.8739 1.0310 3.6245 -3.0709 6.1049 12.2499 4.1561 -5.2742 -0.4909 -1.9151 -0.1645 -0.1734 4.5166 -7.7941 13.9926 1.6552 -8.5051 -5.3562 -2.0935 8.0649 -4.1141 6.6703 -15.2167 5.7193 -0.4754 2.2977 16.8583 -0.6619 -6.3413 -4.3801 -14.0016 31.1101 -10.5883 -2.5640 -4.7320 -0.9621 0.6437 -13.9166 2.5367 3.1102 -8.8546 4.0241 8.7218 21.2219 -4.1363 3.2747 -10.9970 0.0000 0.0000 -0.0937 -3.1913 -13.7212 -7.9914 -2.1833 -4.3214 15.3117 6.1257 -3.0981 -5.0479 -0.0000 -0.0000 -0.2831 
0.1626 117.8129 0.1072 -1.6184 -1.0166 -0.7308 0.0958 -0.1563 0.1516 -0.1208 -1.9837 -0.0406 -0.1124 -1.9801 -0.0407 -0.9630 1.3260 -1.6563 2.8503 -0.9778 9.3555 12.2744 11.4019 1.5457 -36.7127 -24.7423 18.9946 3.5284 -7.3159 -9.2904 -7.2703 -21.9667 17.3750 13.3764 28.5584 19.9309 -2.1159 -5.9230 -8.6425 -0.4427 -2.8969 -26.6393 -26.7796 -5.9293 -1.7449 10.8877 -0.8965 -8.0242 -5.9109 -0.8041 -6.4328 -26.9525 -11.3105 -8.7000 30.6782 3.7276 1.9048 -21.8555 -2.5849 -6.1328 -29.4330 -17.6833 -16.7610 31.9088 -0.8856 7.9897 -5.9519 -0.1829 -2.8950 -29.6869 -19.8385 -22.3868 20.1042 -3.6019 2.1868 8.1385 -2.9341 9.6862 -15.9544 -1.1215 0.5625 41.2545 19.9826 9.4592 1.6034 8.1608 -8.7901 0.7455 14.4435 16.4404 5.4952 -10.7099 13.6676 20.1602 8.8926 -0.8530 -4.6945 -1.8898 1.0344 3.1814 -3.1427 6.1610 12.9418 4.3331 -5.3570 -0.4079 -1.8063 -0.1729 -0.4893 4.4704 -7.7768 14.8474 1.7290 -8.7389 -5.2479 -1.9991 8.0293 -4.4761 6.6096 -15.2023 6.2028 -0.5367 2.1295 17.0725 -0.6588 -6.4157 -4.3024 -13.9722 31.1151 -10.5894 -2.5656 -4.7335 -0.9645 0.6426 -13.9235 2.3632 3.1356 -9.0410 4.0850 8.6742 21.8019 -3.9557 3.4913 -11.3403 -0.0000 -0.0000 -0.0895 -3.3462 -13.8623 -8.0679 -2.2179 -4.1940 15.4565 6.3412 -2.8538 -4.9300 0.0000 -0.0000 -0.2132 
0.6625 117.7104 0.0102 -1.7092 -1.2374 -0.8287 0.0625 -0.1174 0.2321 -0.1755 -1.9678 0.0881 -0.1650 -1.9651 0.0897 -0.8392 1.2347 -1.6568 3.0992 -1.1261 9.2838 12.2113 11.0720 1.5030 -36.8097 -25.7755 19.2410 3.4719 -7.1861 -9.1230 -7.2576 -21.5685 17.0317 13.3735 28.5528 19.8397 -2.0742 -6.0252 -8.5131 -0.4788 -2.8950 -26.5067 -26.6551 -5.9021 -1.7491 10.5427 -0.9993 -8.1077 -6.2197 -0.8584 -6.5051 -26.8241 -11.2394 -8.6520 30.3571 3.7151 1.7962 -21.8991 -2.5924 -6.1429 -29.3742 -17.5880 -16.6481 31.7235 -0.8666 7.9232 -5.9722 -0.1844 -2.9024 -29.7959 -19.7878 -22.2144 19.8780 -3.5704 2.0977 8.1394 -2.9343 9.6866 -15.5336 -0.4837 0.5193 40.7587 20.2145 9.2311 1.5953 8.2117 -8.8466 0.7045 14.1924 16.2475 5.4725 -10.6689 13.6109 20.4637 9.0073 -0.8198 -4.6897 -1.8881 1.0340 2.6415 -3.2035 6.1791 13.6659 4.5194 -5.4413 -0.2815 -1.6939 -0.1897 -0.8530 4.4329 -7.8164 15.7153 1.8075 -8.9752 -5.1244 -1.9066 7.9893 -4.8843 6.5426 -15.2504 6.6951 -0.5976 1.9578 17.3044 -0.6551 -6.4962 -4.2411 -13.9891 31.0175 -10.6271 -2.5125 -4.6311 -0.9605 0.6405 -13.8803 2.1871 3.2057 -9.2597 4.1536 8.6238 22.4241 -3.7704 3.6692 -11.6963 -0.0000 -0.0000 -0.0720 -3.5008 -13.9827 -8.1803 -2.2709 -4.0977 15.6605 6.5693 -2.5952 -4.8349 -0.0000 0.0000 -0.0960 
1.1637 117.5984 -0.0952 -1.8009 -1.4485 -0.9143 0.0263 -0.0769 0.3155 -0.2344 -1.9571 0.2212 -0.2216 -1.9555 0.2247 -0.7064 1.1395 -1.6453 3.3394 -1.2763 9.1859 12.1713 10.7184 1.4598 -36.9431 -26.8148 19.4847 3.4242 -7.0754 -8.9804 -7.2114 -21.2105 16.6474 13.3669 28.5452 19.7371 -2.0238 -6.1478 -8.3576 -0.5181 -2.8916 -26.3500 -26.4637 -5.8345 -1.7272 10.1359 -1.1212 -8.2054 -6.5692 -0.9205 -6.5866 -26.6419 -11.1292 -8.5717 29.9911 3.7001 1.6724 -21.9671 -2.6039 -6.1586 -29.2984 -17.4618 -16.4978 31.5192 -0.8458 7.8497 -6.0042 -0.1868 -2.9142 -29.8853 -19.7069 -21.9936 19.6458 -3.5384 2.0061 8.1392 -2.9342 9.6865 -15.0660 0.2405 0.4770 40.1795 20.5001 9.0520 1.5791 8.3129 -8.9591 0.6573 13.9822 16.0656 5.3464 -10.6159 13.5295 20.8242 9.1433 -0.7796 -4.6357 -1.8687 1.0299 2.1974 -3.2224 6.1341 14.2689 4.6754 -5.5098 -0.1561 -1.6186 -0.2093 -1.1165 4.4261 -7.9251 16.3919 1.8711 -9.1587 -5.0306 -1.8484 7.9593 -5.1523 6.5002 -15.3784 7.0882 -0.6451 1.8203 17.4698 -0.6522 -6.5536 -4.2343 -14.0501 30.8584 -10.6866 -2.4279 -4.4685 -0.9511 0.6387 -13.8054 2.0170 3.2982 -9.5094 4.2123 8.5807 23.0672 -3.5752 3.8331 -12.0551 0.0000 -0.0000 -0.0441 -3.6481 -14.1076 -8.3285 -2.3418 -4.0253 15.8999 6.8040 -2.3072 -4.7476 0.0000 0.0000 -0.0000 
